<svg xmlns="http://www.w3.org/2000/svg" version="1.1" xmlns:xlink="http://www.w3.org/1999/xlink" xmlns:svgjs="http://svgjs.dev/svgjs" width="128" height="128" viewBox="0 0 128 128"><g transform="matrix(0.8046875,0,0,0.8046875,12.760752631578946,40.36516967881503)"><svg viewBox="0 0 95 44" data-background-color="#ffffff" preserveAspectRatio="xMidYMid meet" height="59" width="128" xmlns="http://www.w3.org/2000/svg" xmlns:xlink="http://www.w3.org/1999/xlink"><g id="tight-bounds" transform="matrix(1,0,0,1,-0.24049999999999727,-0.09587553580487906)"><svg viewBox="0 0 95.481 44.19175107160975" height="44.19175107160975" width="95.481"><g><svg viewBox="0 0 95.481 44.19175107160975" height="44.19175107160975" width="95.481"><g><svg viewBox="0 0 95.481 44.19175107160975" height="44.19175107160975" width="95.481"><g id="textblocktransform"><svg viewBox="0 0 95.481 44.19175107160975" height="44.19175107160975" width="95.481" id="textblock"><g><svg viewBox="0 0 95.481 44.19175107160975" height="44.19175107160975" width="95.481"><g><svg viewBox="0 0 95.481 44.19175107160975" height="44.19175107160975" width="95.481"><g><svg xmlns="http://www.w3.org/2000/svg" xmlns:xlink="http://www.w3.org/1999/xlink" version="1.0" x="0" y="0" viewBox="10.787998042659392 27.71461753367748 77.58389706511464 35.90838246632252" enable-background="new 0 0 100 100" xml:space="preserve" width="95.481" height="44.19175107160975" class="icon-icon-0" data-fill-palette-color="accent" id="icon-0"><g fill="#6575a8" data-fill-palette-color="accent"><line fill="none" stroke="#6575A8" stroke-linecap="round" stroke-miterlimit="10" x1="11.854" y1="58.991" x2="65.89" y2="58.991"></line><line fill="none" stroke="#6575A8" stroke-linecap="round" stroke-miterlimit="10" x1="11.854" y1="63.037" x2="65.89" y2="63.037"></line><path d="M68.438 57.824c-0.008 2.443 0 5.799 0 5.799s5.952-0.131 9.666-1.011c3.713-0.879 3.02-0.913 6.092-2.182 3.484-1.439 4.266-3.388 4.168-3.975-0.098-0.586-0.551-2.528-1.271-2.803-0.432-0.163-1.441-0.141-1.977-0.027-0.585 0.125-2.42 0.974-2.812 1.169-0.391 0.196-0.754 0.468-2.109 0.888-2.213 0.687-3.362 0.99-5.219 1.42C73.121 57.531 68.438 57.824 68.438 57.824" fill="#6575a8" data-fill-palette-color="accent"></path><path d="M73.771 53.421c0.263 1.408-0.26 1.538 2.345 1.408 2.608-0.132 2.347-0.116 4.953-0.718 2.995-0.69 4.168-1.617 4.037-2.138-0.13-0.522-1.703-0.884-2.474-1.053-2.972-0.657-3.78-0.782-5.344-1.043-1.563-0.261-1.041-0.391-2.604 0.391C73.121 51.051 73.512 52.014 73.771 53.421z" fill="#6575a8" data-fill-palette-color="accent"></path><path d="M46.894 43.179c-0.366 0.431-1.015 0.485-1.446 0.118l0 0c-0.432-0.367-0.484-1.015-0.117-1.446l3.206-3.776c0.366-0.432 1.015-0.485 1.446-0.119l0 0c0.432 0.368 0.485 1.016 0.118 1.447L46.894 43.179z" fill="#6575a8" data-fill-palette-color="accent"></path><path d="M52.18 46.125c-0.349 0.447-0.993 0.527-1.44 0.179l0 0c-0.446-0.348-0.527-0.993-0.179-1.439l3.042-3.91c0.348-0.446 0.993-0.527 1.441-0.179l0 0c0.445 0.348 0.527 0.993 0.18 1.44L52.18 46.125z" fill="#6575a8" data-fill-palette-color="accent"></path><path d="M57.321 48.648c-0.312 0.473-0.949 0.603-1.423 0.29l0 0c-0.472-0.312-0.602-0.948-0.29-1.42l2.729-4.135c0.312-0.473 0.948-0.603 1.42-0.291l0 0c0.474 0.312 0.605 0.949 0.292 1.421L57.321 48.648z" fill="#6575a8" data-fill-palette-color="accent"></path><path d="M63.06 51.094c-0.248 0.416-0.843 0.52-1.329 0.232l0 0c-0.488-0.289-0.684-0.861-0.437-1.276l2.153-3.639c0.244-0.417 0.84-0.52 1.328-0.232l0 0c0.487 0.29 0.684 0.86 0.437 1.277L63.06 51.094z" fill="#6575a8" data-fill-palette-color="accent"></path><path d="M67.553 53.219c-0.225 0.429-0.812 0.562-1.314 0.302l0 0c-0.503-0.261-0.73-0.823-0.506-1.251l1.953-3.75c0.225-0.429 0.812-0.565 1.316-0.302l0 0c0.5 0.261 0.728 0.822 0.503 1.249L67.553 53.219z" fill="#6575a8" data-fill-palette-color="accent"></path><path d="M32.112 32.681c0 0 2.063 0.545 3.337 1.455 1.368 0.977-0.391 3.031 2.476 4.525 2.966 1.546 2.346 3.295 3.713 2.415 1.368-0.881 2.867-2.415 3.497-3.422 0.626-1 1.909-1.921 0.585-3.583-0.979-1.228-2.029-1.987-3.007-2.769-0.977-0.782-3.916-3.062-5.569-3.288-1.563-0.213-2.443-0.551-3.811 0-1.368 0.551-1.661 0.356-1.857 1.626C31.28 30.912 32.112 32.681 32.112 32.681z" fill="#6575a8" data-fill-palette-color="accent"></path><g fill="#6575a8" data-fill-palette-color="accent"><path d="M40.55 42.711c-2.346-1.824-7.557-5.211-8.079-3.191s-3.974 3.451-6.84 4.233-3.958 1.212-8.104-0.411c-1.014-0.397-3.623-2.52-3.623-2.52s-0.847-1.726-2.149 1.661c-1.303 3.387-0.912 10.938-0.912 10.938l0.032 1.766c0 0 53.627 0.03 57.328 0.263C65.648 54.832 42.799 44.46 40.55 42.711zM31.446 54.226c-1.079 0-1.954-0.874-1.954-1.954s0.875-1.954 1.954-1.954c1.08 0 1.955 0.874 1.955 1.954S32.525 54.226 31.446 54.226zM37.659 54.226c-1.079 0-1.954-0.874-1.954-1.954s0.875-1.954 1.954-1.954c1.08 0 1.954 0.874 1.954 1.954S38.739 54.226 37.659 54.226z" fill="#6575a8" data-fill-palette-color="accent"></path><path d="M68.204 55.449c0.108 0.025 0.194 0.041 0.227 0.03S68.361 55.458 68.204 55.449z" fill="#6575a8" data-fill-palette-color="accent"></path></g></g></svg></g></svg></g></svg></g></svg></g></svg></g><g></g></svg></g><defs></defs></svg><rect width="95.481" height="44.19175107160975" fill="none" stroke="none" visibility="hidden"></rect></g></svg></g></svg>