<svg xmlns="http://www.w3.org/2000/svg" version="1.1" xmlns:xlink="http://www.w3.org/1999/xlink" xmlns:svgjs="http://svgjs.dev/svgjs" width="1500" height="121" viewBox="0 0 1500 121"><g transform="matrix(1,0,0,1,-0.9090909090909918,-0.5308332739196686)"><svg viewBox="0 0 396 32" data-background-color="#ffffff" preserveAspectRatio="xMidYMid meet" height="121" width="1500" xmlns="http://www.w3.org/2000/svg" xmlns:xlink="http://www.w3.org/1999/xlink"><g id="tight-bounds" transform="matrix(1,0,0,1,0.2400000000000091,0.14038565921842405)"><svg viewBox="0 0 395.52 31.719228681563173" height="31.719228681563173" width="395.52"><g><svg viewBox="0 0 486.4776488515746 39.013692840797646" height="31.719228681563173" width="395.52"><g transform="matrix(1,0,0,1,0,5.391906897678981)"><svg viewBox="0 0 395.52 28.229879045439684" height="28.229879045439684" width="395.52"><g id="textblocktransform"><svg viewBox="0 0 395.52 28.229879045439684" height="28.229879045439684" width="395.52" id="textblock"><g><svg viewBox="0 0 395.52 28.229879045439684" height="28.229879045439684" width="395.52"><g transform="matrix(1,0,0,1,0,0)"><svg width="395.52" viewBox="-8.5 -32 457.98 32.75" height="28.229879045439684" data-palette-color="#41907a"><g class="wordmark-text-0" data-fill-palette-color="primary" id="text-0"><path d="M-8.5-31.25L11.15-31.25 11.15-29-8.5-31.25ZM-8.5-26.45L11.15-26.45 11.15-24.2-8.5-26.45ZM-8.5-21.65L11.15-21.65 11.15-19.4-8.5-21.65ZM-8.5-16.85L11.15-16.85 11.15-14.6-8.5-16.85ZM-8.5-12.05L11.15-12.05 11.15-9.8-8.5-12.05ZM-8.5-7.25L11.15-7.25 11.15-5-8.5-7.25ZM-8.5-2.4L11.15-2.4 11.15-0.15-8.5-2.4ZM41.5 0L28.9 0 28.9-11.5 28.35-11.5 24.2 0 12.65 0 12.65-31.25 22.6-31.25 21.7-13.8 22-13.8 28.5-31.25 36.05-31.25 36.05-13.8 36.35-13.8 41.7-31.25 51.65-31.25 41.5 0ZM75.1-26.95L75.1-26.95Q80.5-26.95 82.8-24.88 85.1-22.8 85.1-18.4L85.1-18.4Q85.1-16.25 84.55-13.2L84.55-13.2Q83.3-6 80.15-2.7 77 0.6 70.25 0.6L70.25 0.6Q64.95 0.6 62.7-1.48 60.45-3.55 60.45-7.9L60.45-7.9Q60.45-10.15 61-13.2L61-13.2Q62.25-20.4 65.35-23.68 68.45-26.95 75.1-26.95ZM68.75-7L71.7-7Q73.15-7 73.87-7.35 74.6-7.7 74.85-8.9L74.85-8.9 76.75-19.35 73.7-19.35Q72.3-19.35 71.52-19 70.75-18.65 70.6-17.5L70.6-17.5 68.75-7ZM39.3-12.05L59.25-12.05Q59.05-10.5 59-9.95L59-9.95 39.3-12.05ZM40.2-16.85L60.2-16.85 59.75-14.75 40.2-16.85ZM39.5-7.25L58.95-7.25Q58.95-6.45 59.15-5.15L59.15-5.15 39.5-7.25ZM42.2-21.65L61.95-21.65Q61.35-20.35 61.1-19.65L61.1-19.65 42.2-21.65ZM43.85-2.4L60-2.4Q60.6-1.2 61.3-0.55L61.3-0.55 43.85-2.4ZM48.9-26.45L66.3-26.45Q65.1-25.75 64.25-24.8L64.25-24.8 48.9-26.45ZM120.1 0L113.3 0 108.15-9.9 107.95-9.9 106.2 0 97.8 0 102.4-26.45 109.2-26.45 114.4-16.6 114.7-16.6 116.4-26.45 124.75-26.45 120.1 0ZM96.55-2.4L96.15-0.15 74.95-2.4 96.55-2.4ZM98.25-12.05L97.85-9.8 76.65-12.05 98.25-12.05ZM99.1-16.85L98.7-14.6 77.5-16.85 99.1-16.85ZM99.95-21.65L99.55-19.4 78.35-21.65 99.95-21.65ZM100.75-26.45L100.4-24.2 79.2-26.45 100.75-26.45ZM97.4-7.25L97-5 75.8-7.25 97.4-7.25ZM157.94 0L148.79 0 146.44-8.65 146.14-8.65 144.64 0 136.24 0 140.84-26.45 149.29-26.45 147.84-18.35 148.09-18.35 153.24-26.45 162.39-26.45 153.99-13.5 157.94 0ZM134.99-2.4L134.59-0.15 113.39-2.4 134.99-2.4ZM136.69-12.05L136.29-9.8 115.09-12.05 136.69-12.05ZM137.54-16.85L137.14-14.6 115.94-16.85 137.54-16.85ZM138.39-21.65L137.99-19.4 116.79-21.65 138.39-21.65ZM139.19-26.45L138.84-24.2 117.64-26.45 139.19-26.45ZM135.84-7.25L135.44-5 114.24-7.25 135.84-7.25ZM195.94 0L187.19 0 186.99-4.05 180.69-4.05 179.14 0 170.49 0 181.59-26.45 193.99-26.45 195.94 0ZM183.34-11.2L186.99-11.2 186.99-18.8 186.29-18.8 183.34-11.2ZM169.84-2.4L168.89-0.2 148.39-2.4 169.84-2.4ZM171.89-7.25L170.94-5.05 150.44-7.25 171.89-7.25ZM173.89-12.05L172.99-9.85 152.49-12.05 173.89-12.05ZM175.94-16.85L174.99-14.65 154.54-16.85 175.94-16.85ZM177.94-21.65L177.04-19.45 156.59-21.65 177.94-21.65ZM179.94-26.45L179.04-24.3 158.64-26.45 179.94-26.45ZM193.79-16.85L209.34-16.85 209.34-14.6 193.79-16.85ZM194.64-21.65L209.34-21.65 209.34-19.4 194.64-21.65ZM195.49-26.45L209.34-26.45 209.34-24.2 195.49-26.45ZM220.89-30.2L220.89-30.2 220.34-27Q220.29-26.8 215.59-13.75L215.59-13.75 210.84-13.75 210.84-25.3Q210.84-27.1 211.34-29.9L211.34-29.9Q211.54-31.25 213.34-31.25L213.34-31.25 219.34-31.25Q220.89-31.25 220.89-30.2ZM229.14-0.15L208.24-2.4 229.84-2.4 229.14-0.15ZM212.09-21.65L233.64-21.65Q233.34-20.85 232.99-19.4L232.99-19.4 212.09-21.65ZM232.39-15L232.39-15 232.39-14.6 211.19-16.85 232.49-16.85Q232.39-15.65 232.39-15ZM231.44-7.25L230.74-5.05 209.89-7.25 231.44-7.25ZM215.54-26.45L237.09-26.45Q235.74-25.45 235.04-24.35L235.04-24.35 215.54-26.45ZM213.14-12.05L232.84-12.05Q233.29-10.75 234.29-9.8L234.29-9.8 213.14-12.05ZM255.19-25.9L252.79-18.6Q249.39-19.4 246.99-19.4 244.59-19.4 243.44-19.25L243.44-19.25 243.19-17.8 245.69-17.5Q253.74-16.45 253.74-10.85L253.74-10.85Q253.74-10.2 253.44-8.43 253.14-6.65 252.44-5 251.74-3.35 250.66-2.33 249.59-1.3 248.56-0.68 247.54-0.05 245.94 0.2L245.94 0.2Q243.44 0.6 239.26 0.6 235.09 0.6 230.84-0.55L230.84-0.55 233.29-7.95Q237.19-6.85 240.11-6.85 243.04-6.85 244.24-7L244.24-7 244.49-8.6 241.34-8.95Q237.29-9.4 235.59-10.85 233.89-12.3 233.89-15L233.89-15Q233.89-16 234.14-17.5L234.14-17.5Q235.14-22.85 237.74-24.9 240.34-26.95 245.66-26.95 250.99-26.95 255.19-25.9L255.19-25.9Z" fill="#41907a" data-fill-palette-color="primary"></path><path d="M278.09-19.4L278.09-19.4 256.89-21.65 278.44-21.65Q278.19-20.65 278.09-19.4ZM258.29-26.45L279.79-26.45 279.04-24.25 258.29-26.45ZM257.34-16.85L278.09-16.85Q278.19-15.5 278.49-14.6L278.49-14.6 257.34-16.85ZM285.09-9.8L285.09-9.8 258.64-12.05 280.19-12.05Q281.84-10.45 285.09-9.8ZM262.04-31.25L283.54-31.25Q282.39-30.5 281.34-29.2L281.34-29.2 262.04-31.25ZM275.74-5.05L257.79-7.25 276.49-7.25 275.74-5.05ZM274.14-0.2L256.94-2.4 274.89-2.4 274.14-0.2ZM275.84-0.55L278.64-8.8Q282.84-7.65 286.31-7.65 289.79-7.65 291.99-7.95L291.99-7.95 292.39-10.45 288.24-10.85Q283.49-11.3 281.51-13 279.54-14.7 279.54-17.8L279.54-17.8Q279.54-19.15 279.84-20.8L279.84-20.8Q280.99-27.2 284.04-29.6 287.09-32 293.41-32 299.74-32 304.59-30.75L304.59-30.75 301.99-22.75Q297.64-23.5 295.01-23.5 292.39-23.5 290.49-23.25L290.49-23.25 290.09-20.8 293.44-20.45Q298.54-19.9 300.69-18.03 302.84-16.15 302.84-13L302.84-13Q302.84-9.8 301.49-6.4L301.49-6.4Q300.74-4.65 299.91-3.48 299.09-2.3 297.81-1.48 296.54-0.65 295.49-0.23 294.44 0.2 292.79 0.4L292.79 0.4Q290.49 0.75 287.09 0.75L287.09 0.75Q280.89 0.75 275.84-0.55L275.84-0.55ZM337.74 0L329.34 0 330.89-9.15 325.29-9.15 323.69 0 315.29 0 319.89-26.45 328.34-26.45 326.69-17.3 332.34-17.3 333.94-26.45 342.39-26.45 337.74 0ZM314.04-2.4L313.64-0.15 292.44-2.4 314.04-2.4ZM315.74-12.05L315.34-9.8 294.14-12.05 315.74-12.05ZM316.59-16.85L316.19-14.6 294.99-16.85 316.59-16.85ZM317.44-21.65L317.04-19.4 295.84-21.65 317.44-21.65ZM318.24-26.45L317.89-24.2 296.69-26.45 318.24-26.45ZM314.89-7.25L314.49-5 293.29-7.25 314.89-7.25ZM369.13-26.95L369.13-26.95Q374.53-26.95 376.83-24.88 379.13-22.8 379.13-18.4L379.13-18.4Q379.13-16.25 378.58-13.2L378.58-13.2Q377.33-6 374.18-2.7 371.03 0.6 364.28 0.6L364.28 0.6Q358.98 0.6 356.73-1.48 354.48-3.55 354.48-7.9L354.48-7.9Q354.48-10.15 355.03-13.2L355.03-13.2Q356.28-20.4 359.38-23.68 362.48-26.95 369.13-26.95ZM362.78-7L365.73-7Q367.18-7 367.91-7.35 368.63-7.7 368.88-8.9L368.88-8.9 370.78-19.35 367.73-19.35Q366.33-19.35 365.56-19 364.78-18.65 364.63-17.5L364.63-17.5 362.78-7ZM333.33-12.05L353.28-12.05Q353.08-10.5 353.03-9.95L353.03-9.95 333.33-12.05ZM334.23-16.85L354.23-16.85 353.78-14.75 334.23-16.85ZM333.53-7.25L352.98-7.25Q352.98-6.45 353.18-5.15L353.18-5.15 333.53-7.25ZM336.23-21.65L355.98-21.65Q355.38-20.35 355.13-19.65L355.13-19.65 336.23-21.65ZM337.88-2.4L354.03-2.4Q354.63-1.2 355.33-0.55L355.33-0.55 337.88-2.4ZM342.93-26.45L360.33-26.45Q359.13-25.75 358.28-24.8L358.28-24.8 342.93-26.45ZM410.43-15.55L409.58-10.75 402.13-10.75 401.53-7.35 410.78-7.35 409.48 0 391.83 0 396.43-26.45 414.03-26.45 411.68-18.95 403.53-18.95 402.93-15.55 410.43-15.55ZM390.58-2.4L390.18-0.15 368.98-2.4 390.58-2.4ZM392.28-12.05L391.88-9.8 370.68-12.05 392.28-12.05ZM393.13-16.85L392.73-14.6 371.53-16.85 393.13-16.85ZM393.98-21.65L393.58-19.4 372.38-21.65 393.98-21.65ZM394.78-26.45L394.43-24.2 373.23-26.45 394.78-26.45ZM391.43-7.25L391.03-5 369.83-7.25 391.43-7.25ZM423.43-0.15L402.53-2.4 424.13-2.4 423.43-0.15ZM406.38-21.65L427.93-21.65Q427.63-20.85 427.28-19.4L427.28-19.4 406.38-21.65ZM426.68-15L426.68-15 426.68-14.6 405.48-16.85 426.78-16.85Q426.68-15.65 426.68-15ZM425.73-7.25L425.03-5.05 404.18-7.25 425.73-7.25ZM409.83-26.45L431.38-26.45Q430.03-25.45 429.33-24.35L429.33-24.35 409.83-26.45ZM407.43-12.05L427.13-12.05Q427.58-10.75 428.58-9.8L428.58-9.8 407.43-12.05ZM449.48-25.9L447.08-18.6Q443.68-19.4 441.28-19.4 438.88-19.4 437.73-19.25L437.73-19.25 437.48-17.8 439.98-17.5Q448.03-16.45 448.03-10.85L448.03-10.85Q448.03-10.2 447.73-8.43 447.43-6.65 446.73-5 446.03-3.35 444.95-2.33 443.88-1.3 442.85-0.68 441.83-0.05 440.23 0.2L440.23 0.2Q437.73 0.6 433.55 0.6 429.38 0.6 425.13-0.55L425.13-0.55 427.58-7.95Q431.48-6.85 434.4-6.85 437.33-6.85 438.53-7L438.53-7 438.78-8.6 435.63-8.95Q431.58-9.4 429.88-10.85 428.18-12.3 428.18-15L428.18-15Q428.18-16 428.43-17.5L428.43-17.5Q429.43-22.85 432.03-24.9 434.63-26.95 439.95-26.95 445.28-26.95 449.48-25.9L449.48-25.9Z" fill="#6575a8" data-fill-palette-color="accent"></path></g></svg></g></svg></g></svg></g></svg></g><g transform="matrix(1,0,0,1,402.1843969255312,0)"><svg viewBox="0 0 84.29325192604342 39.013692840797646" height="39.013692840797646" width="84.29325192604342"><g><svg xmlns="http://www.w3.org/2000/svg" xmlns:xlink="http://www.w3.org/1999/xlink" version="1.0" x="0" y="0" viewBox="10.787998042659392 27.71461753367748 77.58389706511464 35.90838246632252" enable-background="new 0 0 100 100" xml:space="preserve" width="84.29325192604342" height="39.013692840797646" class="icon-icon-0" data-fill-palette-color="accent" id="icon-0"><g fill="#6575a8" data-fill-palette-color="accent"><line fill="none" stroke="#6575A8" stroke-linecap="round" stroke-miterlimit="10" x1="11.854" y1="58.991" x2="65.89" y2="58.991"></line><line fill="none" stroke="#6575A8" stroke-linecap="round" stroke-miterlimit="10" x1="11.854" y1="63.037" x2="65.89" y2="63.037"></line><path d="M68.438 57.824c-0.008 2.443 0 5.799 0 5.799s5.952-0.131 9.666-1.011c3.713-0.879 3.02-0.913 6.092-2.182 3.484-1.439 4.266-3.388 4.168-3.975-0.098-0.586-0.551-2.528-1.271-2.803-0.432-0.163-1.441-0.141-1.977-0.027-0.585 0.125-2.42 0.974-2.812 1.169-0.391 0.196-0.754 0.468-2.109 0.888-2.213 0.687-3.362 0.99-5.219 1.42C73.121 57.531 68.438 57.824 68.438 57.824" fill="#6575a8" data-fill-palette-color="accent"></path><path d="M73.771 53.421c0.263 1.408-0.26 1.538 2.345 1.408 2.608-0.132 2.347-0.116 4.953-0.718 2.995-0.69 4.168-1.617 4.037-2.138-0.13-0.522-1.703-0.884-2.474-1.053-2.972-0.657-3.78-0.782-5.344-1.043-1.563-0.261-1.041-0.391-2.604 0.391C73.121 51.051 73.512 52.014 73.771 53.421z" fill="#6575a8" data-fill-palette-color="accent"></path><path d="M46.894 43.179c-0.366 0.431-1.015 0.485-1.446 0.118l0 0c-0.432-0.367-0.484-1.015-0.117-1.446l3.206-3.776c0.366-0.432 1.015-0.485 1.446-0.119l0 0c0.432 0.368 0.485 1.016 0.118 1.447L46.894 43.179z" fill="#6575a8" data-fill-palette-color="accent"></path><path d="M52.18 46.125c-0.349 0.447-0.993 0.527-1.44 0.179l0 0c-0.446-0.348-0.527-0.993-0.179-1.439l3.042-3.91c0.348-0.446 0.993-0.527 1.441-0.179l0 0c0.445 0.348 0.527 0.993 0.18 1.44L52.18 46.125z" fill="#6575a8" data-fill-palette-color="accent"></path><path d="M57.321 48.648c-0.312 0.473-0.949 0.603-1.423 0.29l0 0c-0.472-0.312-0.602-0.948-0.29-1.42l2.729-4.135c0.312-0.473 0.948-0.603 1.42-0.291l0 0c0.474 0.312 0.605 0.949 0.292 1.421L57.321 48.648z" fill="#6575a8" data-fill-palette-color="accent"></path><path d="M63.06 51.094c-0.248 0.416-0.843 0.52-1.329 0.232l0 0c-0.488-0.289-0.684-0.861-0.437-1.276l2.153-3.639c0.244-0.417 0.84-0.52 1.328-0.232l0 0c0.487 0.29 0.684 0.86 0.437 1.277L63.06 51.094z" fill="#6575a8" data-fill-palette-color="accent"></path><path d="M67.553 53.219c-0.225 0.429-0.812 0.562-1.314 0.302l0 0c-0.503-0.261-0.73-0.823-0.506-1.251l1.953-3.75c0.225-0.429 0.812-0.565 1.316-0.302l0 0c0.5 0.261 0.728 0.822 0.503 1.249L67.553 53.219z" fill="#6575a8" data-fill-palette-color="accent"></path><path d="M32.112 32.681c0 0 2.063 0.545 3.337 1.455 1.368 0.977-0.391 3.031 2.476 4.525 2.966 1.546 2.346 3.295 3.713 2.415 1.368-0.881 2.867-2.415 3.497-3.422 0.626-1 1.909-1.921 0.585-3.583-0.979-1.228-2.029-1.987-3.007-2.769-0.977-0.782-3.916-3.062-5.569-3.288-1.563-0.213-2.443-0.551-3.811 0-1.368 0.551-1.661 0.356-1.857 1.626C31.28 30.912 32.112 32.681 32.112 32.681z" fill="#6575a8" data-fill-palette-color="accent"></path><g fill="#6575a8" data-fill-palette-color="accent"><path d="M40.55 42.711c-2.346-1.824-7.557-5.211-8.079-3.191s-3.974 3.451-6.84 4.233-3.958 1.212-8.104-0.411c-1.014-0.397-3.623-2.52-3.623-2.52s-0.847-1.726-2.149 1.661c-1.303 3.387-0.912 10.938-0.912 10.938l0.032 1.766c0 0 53.627 0.03 57.328 0.263C65.648 54.832 42.799 44.46 40.55 42.711zM31.446 54.226c-1.079 0-1.954-0.874-1.954-1.954s0.875-1.954 1.954-1.954c1.08 0 1.955 0.874 1.955 1.954S32.525 54.226 31.446 54.226zM37.659 54.226c-1.079 0-1.954-0.874-1.954-1.954s0.875-1.954 1.954-1.954c1.08 0 1.954 0.874 1.954 1.954S38.739 54.226 37.659 54.226z" fill="#6575a8" data-fill-palette-color="accent"></path><path d="M68.204 55.449c0.108 0.025 0.194 0.041 0.227 0.03S68.361 55.458 68.204 55.449z" fill="#6575a8" data-fill-palette-color="accent"></path></g></g></svg></g></svg></g></svg></g><defs></defs></svg><rect width="395.52" height="31.719228681563173" fill="none" stroke="none" visibility="hidden"></rect></g></svg></g></svg>